<svg xmlns="http://www.w3.org/2000/svg" viewBox="0 0 960 720"><defs><linearGradient id="p" x1="0" y1="0" x2="1" y2="1"><stop stop-color="#ff9fb6"/><stop offset="1" stop-color="#d94d76"/></linearGradient></defs><rect x="18" y="18" width="924" height="684" rx="34" fill="none" stroke="url(#p)" stroke-width="12"/><rect x="34" y="34" width="892" height="652" rx="25" fill="none" stroke="#ffd6df" stroke-width="3"/><g fill="#e85d75"><path d="M72 78c-22-25-62 8 0 54 62-46 22-79 0-54z"/><path d="M888 78c-22-25-62 8 0 54 62-46 22-79 0-54z"/><path d="M72 588c-22-25-62 8 0 54 62-46 22-79 0-54z"/><path d="M888 588c-22-25-62 8 0 54 62-46 22-79 0-54z"/></g><g fill="none" stroke="#e85d75" stroke-width="5"><path d="M70 650q80-55 160 0"/><path d="M730 650q80-55 160 0"/></g><text x="480" y="674" text-anchor="middle" fill="#a63e59" font-family="Georgia,serif" font-size="25" font-weight="bold">HaziBooth &#9825;</text></svg>